<?xml version="1.0" encoding="iso-8859-1"?>
<!-- Generator: Adobe Illustrator 19.0.0, SVG Export Plug-In . SVG Version: 6.00 Build 0)  -->
<svg version="1.1" id="Layer_1" xmlns="http://www.w3.org/2000/svg" xmlns:xlink="http://www.w3.org/1999/xlink" x="0px" y="0px"
	 viewBox="0 0 496 496" style="enable-background:new 0 0 496 496;" xml:space="preserve">
<g>
	<g>
		<g>
			<path d="M232,208c-30.872,0-56,25.128-56,56s25.128,56,56,56s56-25.128,56-56S262.872,208,232,208z M232,304
				c-22.056,0-40-17.944-40-40c0-22.056,17.944-40,40-40c22.056,0,40,17.944,40,40C272,286.056,254.056,304,232,304z" fill="pink"/>
			<path d="M232,240c-13.232,0-24,10.768-24,24s10.768,24,24,24s24-10.768,24-24S245.232,240,232,240z M232,272
				c-4.416,0-8-3.584-8-8c0-4.416,3.584-8,8-8s8,3.584,8,8C240,268.416,236.416,272,232,272z" fill="pink"/>
			<path d="M345.376,328c-8.176,0-15.872,3.184-21.656,8.968l-18.752,18.752c-5.784,5.784-8.968,13.472-8.968,21.656
				c0,16.88,13.744,30.624,30.624,30.624c8.176,0,15.872-3.184,21.656-8.968l18.752-18.752c5.784-5.776,8.968-13.472,8.968-21.656
				C376,341.744,362.256,328,345.376,328z M355.72,368.968l-18.752,18.752c-2.72,2.72-6.488,4.28-10.344,4.28
				C318.56,392,312,385.44,312,377.376c0-3.848,1.56-7.624,4.28-10.344l18.752-18.752c2.72-2.72,6.488-4.28,10.344-4.28
				c8.064,0,14.624,6.56,14.624,14.624C360,362.48,358.44,366.248,355.72,368.968z" fill="pink"/>
			<path d="M137.376,128c-8.176,0-15.872,3.184-21.656,8.968L96.968,155.72C91.184,161.504,88,169.192,88,177.376
				C88,194.256,101.744,208,118.624,208c8.176,0,15.872-3.184,21.656-8.968l18.752-18.752c5.784-5.776,8.968-13.472,8.968-21.656
				C168,141.744,154.256,128,137.376,128z M147.72,168.968l-18.752,18.752c-2.72,2.72-6.488,4.28-10.344,4.28
				C110.56,192,104,185.44,104,177.376c0-3.848,1.56-7.624,4.28-10.344l18.752-18.752c2.72-2.72,6.488-4.28,10.344-4.28
				c8.064,0,14.624,6.56,14.624,14.624C152,162.48,150.44,166.248,147.72,168.968z" fill="pink"/>
			<path d="M472,224c-5.832,0-11.744-0.672-17.624-1.992C443.8,137.104,382.296,67.592,299.272,46.536
				C297.248,39.552,296,32.016,296,24c0-13.232-10.768-24-24-24h-48c-13.232,0-24,10.768-24,24c0,8.008-1.256,15.552-3.296,22.544
				c-68.296,17.36-123.768,68.92-146.024,136.072C39.712,188.6,30.096,192,24,192c-13.232,0-24,10.768-24,24v64
				c0,13.232,10.768,24,24,24c10.816,0,19.832,3.832,26.04,7.568c4.064,12.68,9.328,24.776,15.56,36.184
				c-5.872,12.72-13.88,26.08-24.616,37.224l-0.008,0.008c-0.424,0.44-0.816,0.92-1.248,1.352l0.072,0.072
				c-4.792,5.416-7.8,12.44-7.8,20.216c0,8.176,3.184,15.872,8.968,21.656l26.752,26.752C73.504,460.816,81.192,464,89.376,464
				c7.776,0,14.808-3.008,20.224-7.808l0.064,0.056c0.256-0.28,0.552-0.504,0.816-0.776c0.28-0.264,0.56-0.52,0.832-0.792
				c10.936-11.016,25.576-18.136,39.88-22.648c11.376,5.992,23.28,10.904,35.552,14.68c2.832,4.776,9.328,16.696,12.056,30.04
				C201.064,487.896,210.936,496,222.272,496h51.144c11.896,0,21.864-8.552,23.712-20.352c1.368-8.848,4.464-20.672,11.224-28.48
				c6.784-2.032,13.392-4.464,19.88-7.16c27.976,0.16,56.072,30.272,56.52,30.76c5.808,5.96,13.584,9.232,21.872,9.232
				c8.176,0,15.872-3.184,21.656-8.968l18.752-18.752c5.784-5.776,8.968-13.472,8.968-21.656c0-8.44-3.4-16.312-9.664-22.256
				c-13.464-12.376-27.752-29.608-29.904-38.272c9.616-13.352,17.832-27.952,24.248-43.744C451.088,322.136,461.608,320,472,320
				c13.232,0,24-10.768,24-24v-48C496,234.768,485.232,224,472,224z M224,16h48c4.416,0,8,3.584,8,8s-3.584,8-8,8h-48
				c-4.416,0-8-3.584-8-8S219.584,16,224,16z M100.016,443.344c-0.28,0.28-0.576,0.536-0.848,0.816c-2.6,2.36-6.016,3.84-9.792,3.84
				c-3.856,0-7.624-1.56-10.344-4.28L52.28,416.968c-2.72-2.72-4.28-6.488-4.28-10.344c0-3.96,1.6-7.552,4.168-10.192
				c0.064-0.064,0.12-0.136,0.184-0.2c2.64-2.608,6.272-4.232,10.272-4.232c3.848,0,7.624,1.56,10.344,4.28l26.752,26.752
				c2.72,2.72,4.28,6.488,4.28,10.344S102.472,440.728,100.016,443.344z M281.312,473.192c-0.608,3.952-3.936,6.808-7.896,6.808
				h-51.144c-3.824,0-7.032-2.656-7.816-6.464c-1.632-8-4.352-15.424-7.088-21.592C220.72,454.6,234.328,456,248,456
				c13.288,0,26.288-1.368,38.968-3.744C284,459.512,282.272,466.984,281.312,473.192z M435.416,420.064
				c2.952,2.8,4.584,6.552,4.584,10.56c0,3.848-1.56,7.624-4.28,10.344l-18.752,18.752c-5.504,5.504-15.456,5.312-20.608,0.048
				c-1.024-1.12-20.144-21.6-44.864-31.04c20.28-11.584,38.408-26.672,53.784-44.536
				C414.048,399.888,431.128,416.12,435.416,420.064z M431.224,312.984l-3.016,1.344l-1.192,3.08
				C398.12,391.872,327.848,440,248,440c-24.512,0-48.824-4.752-71.44-13.8c13.44-2.096,23.208-2.2,23.448-2.2L200,408
				c-2.248,0-45.896,0.296-80.488,20.384c-1.024-6.28-3.896-12.08-8.48-16.664L84.28,384.968c-4.48-4.48-10.12-7.352-16.232-8.44
				c21.416-32.664,27.552-69.376,27.848-71.264l-15.8-2.536c-0.04,0.232-1.824,10.744-6.616,25.088
				c-3.48-7.656-6.536-15.584-9.04-23.768l-0.832-2.736l-2.376-1.584C53.216,294.376,40.248,288,24,288c-4.416,0-8-3.584-8-8v-64
				c0-4.416,3.584-8,8-8c12.08,0,26.952-7.072,37.304-12.992l2.72-1.56l0.936-2.984c18.68-59.408,65.392-106.016,123.888-125.008
				c-10.816,19.944-25.624,32.12-25.856,32.312L173,110.256c1.488-1.2,31.592-25.824,40.48-64.784C216.672,47.04,220.208,48,224,48
				h48c3.792,0,7.328-0.96,10.52-2.536c8.888,38.96,38.992,63.584,40.48,64.784l10-12.504c-0.24-0.184-15.152-12.368-25.968-32.44
				c72.304,23.256,124.568,87.208,132.04,163.832l0.52,5.392l5.2,1.512c1.904,0.552,3.816,1.016,5.728,1.456
				c-1.56,3.192-2.52,6.72-2.52,10.504v48c0,3.792,0.968,7.336,2.544,10.536C444.064,308.032,437.616,310.152,431.224,312.984z
				 M480,296c0,4.416-3.584,8-8,8c-4.416,0-8-3.584-8-8v-48c0-4.416,3.584-8,8-8c4.416,0,8,3.584,8,8V296z" fill="#fff"/>
			<path d="M349.528,138.216l-11.064,11.56C367.408,177.456,384,213.248,384,248h16C400,208.904,381.6,168.896,349.528,138.216z" fill="pink"/>
			
				<rect x="124.723" y="351.99" transform="matrix(-0.7071 -0.7071 0.7071 -0.7071 -22.3244 710.7337)" width="22.624" height="16" fill="pink"/>
			<rect x="232" y="96" width="16" height="16" fill="pink"/>
			<rect x="304" y="256" width="16" height="16" fill="pink"/>
			<rect x="399.392" y="288" width="16" height="16" fill="pink"/>
		</g>
	</g>
</g>
<g>
</g>
<g>
</g>
<g>
</g>
<g>
</g>
<g>
</g>
<g>
</g>
<g>
</g>
<g>
</g>
<g>
</g>
<g>
</g>
<g>
</g>
<g>
</g>
<g>
</g>
<g>
</g>
<g>
</g>
</svg>
